<?xml version="1.0" standalone="no"?><svg xmlns="http://www.w3.org/2000/svg" viewBox="0 0 1440 320"><path fill="#0099ff" fill-opacity="1" d="M0,128L12,149.3C24,171,48,213,72,218.7C96,224,120,192,144,154.7C168,117,192,75,216,96C240,117,264,203,288,224C312,245,336,203,360,176C384,149,408,139,432,165.3C456,192,480,256,504,250.7C528,245,552,171,576,122.7C600,75,624,53,648,58.7C672,64,696,96,720,117.3C744,139,768,149,792,170.7C816,192,840,224,864,213.3C888,203,912,149,936,106.7C960,64,984,32,1008,48C1032,64,1056,128,1080,138.7C1104,149,1128,107,1152,122.7C1176,139,1200,213,1224,229.3C1248,245,1272,203,1296,186.7C1320,171,1344,181,1368,186.7C1392,192,1416,192,1428,192L1440,192L1440,320L1428,320C1416,320,1392,320,1368,320C1344,320,1320,320,1296,320C1272,320,1248,320,1224,320C1200,320,1176,320,1152,320C1128,320,1104,320,1080,320C1056,320,1032,320,1008,320C984,320,960,320,936,320C912,320,888,320,864,320C840,320,816,320,792,320C768,320,744,320,720,320C696,320,672,320,648,320C624,320,600,320,576,320C552,320,528,320,504,320C480,320,456,320,432,320C408,320,384,320,360,320C336,320,312,320,288,320C264,320,240,320,216,320C192,320,168,320,144,320C120,320,96,320,72,320C48,320,24,320,12,320L0,320Z"></path></svg>